<svg xmlns="http://www.w3.org/2000/svg" width="64" height="64" viewBox="0 0 64 64" role="img" aria-labelledby="title">
  <title id="title">NGO care favicon</title>
  <defs>
    <linearGradient id="bg" x1="0" x2="1" y1="0" y2="1">
      <stop offset="0" stop-color="#071b14"/>
      <stop offset="1" stop-color="#0f4a35"/>
    </linearGradient>
    <linearGradient id="gold" x1="0" x2="1" y1="0" y2="1">
      <stop offset="0" stop-color="#ffe8a3"/>
      <stop offset="1" stop-color="#c7a646"/>
    </linearGradient>
  </defs>
  <rect width="64" height="64" rx="16" fill="url(#bg)"/>
  <path d="M32 49C21.6 42.2 12 34.1 12 24.1 12 18.5 16.5 14 22.1 14c4 0 7.5 2.3 9.2 5.7C33 16.3 36.5 14 40.5 14 46.1 14 50.6 18.5 50.6 24.1 50.6 34.1 42.4 42.2 32 49Z" fill="url(#gold)"/>
  <path d="M22 30c5.9 4.7 12.8 5.3 20.7 1.7-2.6 5.2-6.9 9.4-10.7 12.2C27.5 40.7 23.5 36.3 22 30Z" fill="#fff6d8" opacity="0.38"/>
  <path d="M16.5 45.5c5.4-4 10.6-5.9 15.5-5.9s10.1 1.9 15.5 5.9" fill="none" stroke="#f5dda0" stroke-linecap="round" stroke-width="4"/>
</svg>
